<svg width="64" height="64" viewBox="0 0 64 64" fill="none" xmlns="http://www.w3.org/2000/svg">
  <title>Thu ngan</title>
  <path d="M14 31H48C50.5 31 52.6 32.8 53 35.2L56 52H8L11 35.2C11.4 32.8 13.5 31 16 31H14Z" fill="#C67C4E"/>
  <rect x="10" y="51" width="46" height="8" rx="3" fill="#C67C4E"/>
  <path d="M18 37H22" stroke="white" stroke-width="3" stroke-linecap="round"/>
  <path d="M27 37H31" stroke="white" stroke-width="3" stroke-linecap="round"/>
  <path d="M18 43H22" stroke="white" stroke-width="3" stroke-linecap="round"/>
  <path d="M27 43H31" stroke="white" stroke-width="3" stroke-linecap="round"/>
  <rect x="37" y="37" width="12" height="8" rx="2" fill="white"/>
  <rect x="18" y="15" width="24" height="10" rx="3" fill="#C67C4E"/>
  <path d="M30 25V31" stroke="#C67C4E" stroke-width="5" stroke-linecap="round"/>
  <path d="M39 9H51L49 13L51 17H39V9Z" fill="white"/>
  <path d="M39 9H51L49 13L51 17H39V9Z" stroke="#C67C4E" stroke-width="3" stroke-linejoin="round"/>
  <path d="M40 16V31" stroke="#C67C4E" stroke-width="4" stroke-linecap="round"/>
  <path d="M41 22H50" stroke="#C67C4E" stroke-width="3" stroke-linecap="round"/>
  <path d="M42 27H48" stroke="#C67C4E" stroke-width="3" stroke-linecap="round"/>
</svg>
