<svg width="50" height="50" viewBox="0 0 50 50" fill="none" xmlns="http://www.w3.org/2000/svg">
<path d="M37.5001 16.6666H39.5834C41.7936 16.6666 43.9132 17.5446 45.476 19.1074C47.0388 20.6702 47.9167 22.7898 47.9167 24.9999C47.9167 27.2101 47.0388 29.3297 45.476 30.8925C43.9132 32.4553 41.7936 33.3333 39.5834 33.3333H37.5001M37.5001 16.6666H4.16675V35.4166C4.16675 37.6267 5.04472 39.7463 6.60752 41.3091C8.17033 42.8719 10.2899 43.7499 12.5001 43.7499H29.1667C31.3769 43.7499 33.4965 42.8719 35.0593 41.3091C36.6221 39.7463 37.5001 37.6267 37.5001 35.4166V16.6666ZM12.5001 2.08325V8.33325M20.8334 2.08325V8.33325M29.1667 2.08325V8.33325" stroke="#BF6A02" stroke-width="2" stroke-linecap="round" stroke-linejoin="round"/>
</svg>
