<svg width="100" height="100" viewBox="0 0 100 100" fill="none" xmlns="http://www.w3.org/2000/svg">
<path d="M31.25 39.1666L68.75 17.5416M86.375 28.9999L50 50.0416L13.625 28.9999M50 91.9999V49.9999M12.5 66.6666V33.3333C12.5015 31.8719 12.8873 30.4366 13.6186 29.1714C14.3499 27.9062 15.4011 26.8556 16.6667 26.1249L45.8333 9.45825C47.1002 8.72685 48.5372 8.3418 50 8.3418C51.4628 8.3418 52.8998 8.72685 54.1667 9.45825L83.3333 26.1249C84.5989 26.8556 85.6501 27.9062 86.3814 29.1714C87.1127 30.4366 87.4985 31.8719 87.5 33.3333V66.6666C87.4985 68.1279 87.1127 69.5632 86.3814 70.8284C85.6501 72.0936 84.5989 73.1442 83.3333 73.8749L54.1667 90.5416C52.8998 91.273 51.4628 91.658 50 91.658C48.5372 91.658 47.1002 91.273 45.8333 90.5416L16.6667 73.8749C15.4011 73.1442 14.3499 72.0936 13.6186 70.8284C12.8873 69.5632 12.5015 68.1279 12.5 66.6666Z" stroke="#975102" stroke-width="4" stroke-linecap="round" stroke-linejoin="round"/>
</svg>
