<svg width="193" height="70" viewBox="0 0 193 70" fill="none" xmlns="http://www.w3.org/2000/svg">
<rect x="0.5" y="0.5" width="192" height="69" rx="7.5" stroke="#B9B9B9"/>
<path d="M21.25 46.25H16.25C15.587 46.25 14.9511 45.9866 14.4822 45.5178C14.0134 45.0489 13.75 44.413 13.75 43.75V26.25C13.75 25.587 14.0134 24.9511 14.4822 24.4822C14.9511 24.0134 15.587 23.75 16.25 23.75H21.25M30 28.75L36.25 35L30 41.25M36.25 35H21.25" stroke="#1E1E1E" stroke-width="2.5" stroke-linecap="round" stroke-linejoin="round"/>
<path d="M66.544 44.558H74.596V47H63.541V23.999H66.544V44.558ZM85.6721 47.297C83.9781 47.297 82.4381 46.912 81.0521 46.142C79.6881 45.372 78.6101 44.283 77.8181 42.875C77.0481 41.445 76.6631 39.795 76.6631 37.925C76.6631 36.077 77.0591 34.449 77.8511 33.041C78.6651 31.611 79.7651 30.522 81.1511 29.774C82.5371 29.004 84.0881 28.619 85.8041 28.619C87.5201 28.619 89.0711 29.004 90.4571 29.774C91.8431 30.522 92.9321 31.6 93.7241 33.008C94.5381 34.416 94.9451 36.055 94.9451 37.925C94.9451 39.795 94.5271 41.445 93.6911 42.875C92.8771 44.283 91.7661 45.372 90.3581 46.142C88.9501 46.912 87.3881 47.297 85.6721 47.297ZM85.6721 44.657C86.7501 44.657 87.7621 44.404 88.7081 43.898C89.6541 43.392 90.4131 42.633 90.9851 41.621C91.5791 40.609 91.8761 39.377 91.8761 37.925C91.8761 36.473 91.5901 35.241 91.0181 34.229C90.4461 33.217 89.6981 32.469 88.7741 31.985C87.8501 31.479 86.8491 31.226 85.7711 31.226C84.6711 31.226 83.6591 31.479 82.7351 31.985C81.8331 32.469 81.1071 33.217 80.5571 34.229C80.0071 35.241 79.7321 36.473 79.7321 37.925C79.7321 39.399 79.9961 40.642 80.5241 41.654C81.0741 42.666 81.8001 43.425 82.7021 43.931C83.6041 44.415 84.5941 44.657 85.6721 44.657ZM106.352 28.619C107.914 28.619 109.278 28.96 110.444 29.642C111.632 30.324 112.512 31.182 113.084 32.216V28.916H116.12V47.396C116.12 49.046 115.768 50.509 115.064 51.785C114.36 53.083 113.348 54.095 112.028 54.821C110.73 55.547 109.212 55.91 107.474 55.91C105.098 55.91 103.118 55.349 101.534 54.227C99.9495 53.105 99.0145 51.576 98.7285 49.64H101.699C102.029 50.74 102.711 51.62 103.745 52.28C104.779 52.962 106.022 53.303 107.474 53.303C109.124 53.303 110.466 52.786 111.5 51.752C112.556 50.718 113.084 49.266 113.084 47.396V43.601C112.49 44.657 111.61 45.537 110.444 46.241C109.278 46.945 107.914 47.297 106.352 47.297C104.746 47.297 103.283 46.901 101.963 46.109C100.665 45.317 99.6415 44.206 98.8935 42.776C98.1455 41.346 97.7715 39.718 97.7715 37.892C97.7715 36.044 98.1455 34.427 98.8935 33.041C99.6415 31.633 100.665 30.544 101.963 29.774C103.283 29.004 104.746 28.619 106.352 28.619ZM113.084 37.925C113.084 36.561 112.809 35.373 112.259 34.361C111.709 33.349 110.961 32.579 110.015 32.051C109.091 31.501 108.068 31.226 106.946 31.226C105.824 31.226 104.801 31.49 103.877 32.018C102.953 32.546 102.216 33.316 101.666 34.328C101.116 35.34 100.841 36.528 100.841 37.892C100.841 39.278 101.116 40.488 101.666 41.522C102.216 42.534 102.953 43.315 103.877 43.865C104.801 44.393 105.824 44.657 106.946 44.657C108.068 44.657 109.091 44.393 110.015 43.865C110.961 43.315 111.709 42.534 112.259 41.522C112.809 40.488 113.084 39.289 113.084 37.925ZM129.081 47.297C127.387 47.297 125.847 46.912 124.461 46.142C123.097 45.372 122.019 44.283 121.227 42.875C120.457 41.445 120.072 39.795 120.072 37.925C120.072 36.077 120.468 34.449 121.26 33.041C122.074 31.611 123.174 30.522 124.56 29.774C125.946 29.004 127.497 28.619 129.213 28.619C130.929 28.619 132.48 29.004 133.866 29.774C135.252 30.522 136.341 31.6 137.133 33.008C137.947 34.416 138.354 36.055 138.354 37.925C138.354 39.795 137.936 41.445 137.1 42.875C136.286 44.283 135.175 45.372 133.767 46.142C132.359 46.912 130.797 47.297 129.081 47.297ZM129.081 44.657C130.159 44.657 131.171 44.404 132.117 43.898C133.063 43.392 133.822 42.633 134.394 41.621C134.988 40.609 135.285 39.377 135.285 37.925C135.285 36.473 134.999 35.241 134.427 34.229C133.855 33.217 133.107 32.469 132.183 31.985C131.259 31.479 130.258 31.226 129.18 31.226C128.08 31.226 127.068 31.479 126.144 31.985C125.242 32.469 124.516 33.217 123.966 34.229C123.416 35.241 123.141 36.473 123.141 37.925C123.141 39.399 123.405 40.642 123.933 41.654C124.483 42.666 125.209 43.425 126.111 43.931C127.013 44.415 128.003 44.657 129.081 44.657ZM158.341 28.916V47H155.338V44.327C154.766 45.251 153.963 45.977 152.929 46.505C151.917 47.011 150.795 47.264 149.563 47.264C148.155 47.264 146.89 46.978 145.768 46.406C144.646 45.812 143.755 44.932 143.095 43.766C142.457 42.6 142.138 41.181 142.138 39.509V28.916H145.108V39.113C145.108 40.895 145.559 42.27 146.461 43.238C147.363 44.184 148.595 44.657 150.157 44.657C151.763 44.657 153.028 44.162 153.952 43.172C154.876 42.182 155.338 40.741 155.338 38.849V28.916H158.341ZM167.074 31.391V42.05C167.074 42.93 167.261 43.557 167.635 43.931C168.009 44.283 168.658 44.459 169.582 44.459H171.793V47H169.087C167.415 47 166.161 46.615 165.325 45.845C164.489 45.075 164.071 43.81 164.071 42.05V31.391H161.728V28.916H164.071V24.362H167.074V28.916H171.793V31.391H167.074Z" fill="black"/>
</svg>
