<svg width="100" height="110" viewBox="0 0 100 110" fill="none" xmlns="http://www.w3.org/2000/svg">
<path d="M61.6667 78.3333V71.6666C61.6667 69.4564 62.5446 67.3368 64.1074 65.774C65.6702 64.2112 67.7899 63.3333 70 63.3333C72.2101 63.3333 74.3298 64.2112 75.8926 65.774C77.4554 67.3368 78.3333 69.4564 78.3333 71.6666V78.3333M58.3333 78.3333H81.6667C83.5076 78.3333 85 79.8256 85 81.6666V93.3333C85 95.1742 83.5076 96.6666 81.6667 96.6666H58.3333C56.4924 96.6666 55 95.1742 55 93.3333V81.6666C55 79.8256 56.4924 78.3333 58.3333 78.3333Z" stroke="#975102" stroke-width="3.5" stroke-linecap="round" stroke-linejoin="round"/>
<path d="M12.5 91.6667L20.8333 83.3334M20.8333 83.3334L8.33329 70.8334L22.9166 56.2501L35.4166 68.7501M52.5416 51.6251L35.4166 68.7501L20.8333 83.3334M52.5416 51.6251C50.3902 49.5023 48.6799 46.9749 47.5093 44.1884C46.3387 41.402 45.7308 38.4115 45.7207 35.3891C45.7106 32.3667 46.2984 29.3722 47.4503 26.578C48.6023 23.7837 50.2955 21.245 52.4327 19.1078C54.5698 16.9707 57.1086 15.2774 59.9029 14.1254C62.6971 12.9735 65.6916 12.3857 68.714 12.3958C71.7364 12.4059 74.7269 13.0138 77.5133 14.1844C80.2998 15.3551 82.8272 17.0653 84.95 19.2167C89.1244 23.5389 91.4343 29.3277 91.3821 35.3364C91.3299 41.345 88.9197 47.0928 84.6708 51.3418C80.4219 55.5907 74.6741 58.0008 68.6654 58.053C62.6567 58.1052 56.8679 55.7954 52.5458 51.6209L52.5416 51.6251Z" stroke="#975102" stroke-width="3.5" stroke-linecap="round" stroke-linejoin="round"/>
</svg>
