<svg width="168" height="110" viewBox="0 0 168 110" fill="none" xmlns="http://www.w3.org/2000/svg">
<path d="M100.5 65H155.5M105.5 50H150.5C153.261 50 155.5 52.2386 155.5 55V85C155.5 87.7614 153.261 90 150.5 90H105.5C102.739 90 100.5 87.7614 100.5 85V55C100.5 52.2386 102.739 50 105.5 50Z" stroke="#975102" stroke-width="2.5" stroke-linecap="round" stroke-linejoin="round"/>
<path d="M66.6667 87.5V79.1667C66.6667 74.7464 64.9108 70.5072 61.7852 67.3816C58.6596 64.2559 54.4204 62.5 50.0001 62.5H20.8334C16.4131 62.5 12.1739 64.2559 9.0483 67.3816C5.9227 70.5072 4.16675 74.7464 4.16675 79.1667V87.5M83.3334 33.3333V58.3333M95.8334 45.8333H70.8334M52.0834 29.1667C52.0834 38.3714 44.6215 45.8333 35.4167 45.8333C26.212 45.8333 18.7501 38.3714 18.7501 29.1667C18.7501 19.9619 26.212 12.5 35.4167 12.5C44.6215 12.5 52.0834 19.9619 52.0834 29.1667Z" stroke="#975102" stroke-width="3.5" stroke-linecap="round" stroke-linejoin="round"/>
</svg>
