<svg width="100" height="110" viewBox="0 0 100 110" fill="none" xmlns="http://www.w3.org/2000/svg">
    <path d="M30 18.3333H70C73.6819 18.3333 76.6667 21.3181 76.6667 25V88.3333C76.6667 92.0152 73.6819 95 70 95H30C26.3181 95 23.3333 92.0152 23.3333 88.3333V25C23.3333 21.3181 26.3181 18.3333 30 18.3333Z" stroke="#975102" stroke-width="3.5" stroke-linecap="round" stroke-linejoin="round"/>
    <path d="M38.3333 11.6667H61.6667C64.4281 11.6667 66.6667 13.9052 66.6667 16.6667V25H33.3333V16.6667C33.3333 13.9052 35.5719 11.6667 38.3333 11.6667Z" stroke="#975102" stroke-width="3.5" stroke-linecap="round" stroke-linejoin="round"/>
    <path d="M37.5 47.5L46.6667 56.6667L65 38.3333" stroke="#975102" stroke-width="3.5" stroke-linecap="round" stroke-linejoin="round"/>
    <path d="M36.6667 70H63.3333" stroke="#975102" stroke-width="3.5" stroke-linecap="round"/>
    <path d="M36.6667 81.6667H56.6667" stroke="#975102" stroke-width="3.5" stroke-linecap="round"/>
</svg>