<svg width="22" height="22" viewBox="0 0 22 22" fill="none" xmlns="http://www.w3.org/2000/svg">
<path d="M12.5 10.125V13.2917M12.5 16.4584H12.5079M11.1463 6.05587L4.44083 17.25C4.30258 17.4895 4.22943 17.7609 4.22866 18.0374C4.22789 18.3138 4.29951 18.5857 4.43642 18.8259C4.57333 19.0661 4.77074 19.2662 5.00902 19.4064C5.2473 19.5466 5.51813 19.622 5.79458 19.625H19.2054C19.4819 19.622 19.7527 19.5466 19.991 19.4064C20.2293 19.2662 20.4267 19.0661 20.5636 18.8259C20.7005 18.5857 20.7721 18.3138 20.7713 18.0374C20.7706 17.7609 20.6974 17.4895 20.5592 17.25L13.8538 6.05587C13.7126 5.82321 13.5139 5.63084 13.2768 5.49734C13.0397 5.36384 12.7721 5.2937 12.5 5.2937C12.2279 5.2937 11.9603 5.36384 11.7232 5.49734C11.4861 5.63084 11.2874 5.82321 11.1463 6.05587Z" stroke="#1E1E1E" stroke-width="2" stroke-linecap="round" stroke-linejoin="round"/>
</svg>
