<svg width="20" height="26" viewBox="0 0 20 26" fill="none" xmlns="http://www.w3.org/2000/svg">
<path d="M2.725 12.51L10 16.5079L17.275 12.51M10 24.48V16.5M17.5 19.6667V13.3333C17.4997 13.0557 17.4225 12.783 17.2763 12.5426C17.13 12.3022 16.9198 12.1026 16.6667 11.9638L10.8333 8.79709C10.58 8.65812 10.2926 8.58496 10 8.58496C9.70744 8.58496 9.42003 8.65812 9.16667 8.79709L3.33333 11.9638C3.08022 12.1026 2.86998 12.3022 2.72372 12.5426C2.57745 12.783 2.5003 13.0557 2.5 13.3333V19.6667C2.5003 19.9443 2.57745 20.217 2.72372 20.4574C2.86998 20.6978 3.08022 20.8974 3.33333 21.0363L9.16667 24.2029C9.42003 24.3419 9.70744 24.415 10 24.415C10.2926 24.415 10.58 24.3419 10.8333 24.2029L16.6667 21.0363C16.9198 20.8974 17.13 20.6978 17.2763 20.4574C17.4225 20.217 17.4997 19.9443 17.5 19.6667Z" stroke="#1E1E1E" stroke-width="1.6" stroke-linecap="round" stroke-linejoin="round"/>
<path d="M10 3.33325V12.6666M5.33334 7.99992L10 12.6666L14.6667 7.99992" stroke="#1E1E1E" stroke-width="1.6" stroke-linecap="round" stroke-linejoin="round"/>
</svg>
