<svg width="20" height="19" viewBox="0 0 20 19" fill="none" xmlns="http://www.w3.org/2000/svg">
    <path d="M2.5 5.54167H11.6667V12.6667H2.5V5.54167Z" stroke="#1E1E1E" stroke-width="2.5" stroke-linecap="round" stroke-linejoin="round"/>
    <path d="M11.6667 7.91667H15L17.5 10.2917V12.6667H11.6667V7.91667Z" stroke="#1E1E1E" stroke-width="2.5" stroke-linecap="round" stroke-linejoin="round"/>
    <path d="M5 15.0417C5.92047 15.0417 6.66667 14.3321 6.66667 13.4583C6.66667 12.5845 5.92047 11.875 5 11.875C4.07953 11.875 3.33333 12.5845 3.33333 13.4583C3.33333 14.3321 4.07953 15.0417 5 15.0417Z" stroke="#1E1E1E" stroke-width="2.5" stroke-linecap="round" stroke-linejoin="round"/>
    <path d="M15 15.0417C15.9205 15.0417 16.6667 14.3321 16.6667 13.4583C16.6667 12.5845 15.9205 11.875 15 11.875C14.0795 11.875 13.3333 12.5845 13.3333 13.4583C13.3333 14.3321 14.0795 15.0417 15 15.0417Z" stroke="#1E1E1E" stroke-width="2.5" stroke-linecap="round" stroke-linejoin="round"/>
    <path d="M6.66667 13.4583H13.3333" stroke="#1E1E1E" stroke-width="2.5" stroke-linecap="round"/>
</svg>