<svg width="20" height="19" viewBox="0 0 20 19" fill="none" xmlns="http://www.w3.org/2000/svg">
<path d="M13.75 7.44167L6.25 3.33292M2.725 5.51L10 9.50792L17.275 5.51M10 17.48V9.5M17.5 12.6667V6.33334C17.4997 6.05568 17.4225 5.78298 17.2763 5.54259C17.13 5.3022 16.9198 5.10258 16.6667 4.96375L10.8333 1.79709C10.58 1.65812 10.2926 1.58496 10 1.58496C9.70744 1.58496 9.42003 1.65812 9.16667 1.79709L3.33333 4.96375C3.08022 5.10258 2.86998 5.3022 2.72372 5.54259C2.57745 5.78298 2.5003 6.05568 2.5 6.33334V12.6667C2.5003 12.9443 2.57745 13.217 2.72372 13.4574C2.86998 13.6978 3.08022 13.8974 3.33333 14.0363L9.16667 17.2029C9.42003 17.3419 9.70744 17.415 10 17.415C10.2926 17.415 10.58 17.3419 10.8333 17.2029L16.6667 14.0363C16.9198 13.8974 17.13 13.6978 17.2763 13.4574C17.4225 13.217 17.4997 12.9443 17.5 12.6667Z" stroke="#1E1E1E" stroke-width="2.5" stroke-linecap="round" stroke-linejoin="round"/>
</svg>
