<svg width="24" height="26" viewBox="0 0 24 26" fill="none" xmlns="http://www.w3.org/2000/svg">
<path d="M4.725 12.51L12 16.5079L19.275 12.51M12 24.48V16.5M19.5 19.6667V13.3333C19.4997 13.0557 19.4225 12.783 19.2763 12.5426C19.13 12.3022 18.9198 12.1026 18.6667 11.9638L12.8333 8.79709C12.58 8.65812 12.2926 8.58496 12 8.58496C11.7074 8.58496 11.42 8.65812 11.1667 8.79709L5.33333 11.9638C5.08022 12.1026 4.86998 12.3022 4.72372 12.5426C4.57745 12.783 4.5003 13.0557 4.5 13.3333V19.6667C4.5003 19.9443 4.57745 20.217 4.72372 20.4574C4.86998 20.6978 5.08022 20.8974 5.33333 21.0363L11.1667 24.2029C11.42 24.3419 11.7074 24.415 12 24.415C12.2926 24.415 12.58 24.3419 12.8333 24.2029L18.6667 21.0363C18.9198 20.8974 19.13 20.6978 19.2763 20.4574C19.4225 20.217 19.4997 19.9443 19.5 19.6667Z" stroke="#1E1E1E" stroke-width="1.6" stroke-linecap="round" stroke-linejoin="round"/>
<path d="M12 12.6666V3.33325M16.6667 7.99992L12 3.33325L7.33333 7.99992" stroke="#1E1E1E" stroke-width="1.6" stroke-linecap="round" stroke-linejoin="round"/>
</svg>
