<svg width="100" height="100" viewBox="0 0 100 100" fill="none" xmlns="http://www.w3.org/2000/svg">
<path d="M87.5 24.9999V83.3333C87.5 85.5434 86.622 87.663 85.0592 89.2258C83.4964 90.7886 81.3768 91.6666 79.1667 91.6666H20.8333C18.6232 91.6666 16.5036 90.7886 14.9408 89.2258C13.378 87.663 12.5 85.5434 12.5 83.3333V24.9999L25 8.33325H75L87.5 24.9999ZM12.5 24.9999H87.5M66.6667 41.6666C66.6667 46.0869 64.9107 50.3261 61.7851 53.4517C58.6595 56.5773 54.4203 58.3333 50 58.3333C45.5797 58.3333 41.3405 56.5773 38.2149 53.4517C35.0893 50.3261 33.3333 46.0869 33.3333 41.6666" stroke="#975102" stroke-width="4" stroke-linecap="round" stroke-linejoin="round"/>
</svg>
