<svg width="163" height="100" viewBox="0 0 163 100" fill="none" xmlns="http://www.w3.org/2000/svg">
<path d="M83.3332 87.5V79.1667C83.3332 74.7464 81.5772 70.5072 78.4516 67.3816C75.326 64.2559 71.0868 62.5 66.6665 62.5H33.3332C28.9129 62.5 24.6737 64.2559 21.5481 67.3816C18.4225 70.5072 16.6665 74.7464 16.6665 79.1667V87.5M66.6665 29.1667C66.6665 38.3714 59.2046 45.8333 49.9998 45.8333C40.7951 45.8333 33.3332 38.3714 33.3332 29.1667C33.3332 19.9619 40.7951 12.5 49.9998 12.5C59.2046 12.5 66.6665 19.9619 66.6665 29.1667Z" stroke="#975102" stroke-width="4" stroke-linecap="round" stroke-linejoin="round"/>
<path d="M123 69.9999C128.523 69.9999 133 65.5228 133 59.9999C133 54.4771 128.523 49.9999 123 49.9999C117.477 49.9999 113 54.4771 113 59.9999C113 65.5228 117.477 69.9999 123 69.9999Z" stroke="#975102" stroke-width="2.5" stroke-linecap="round" stroke-linejoin="round"/>
<path d="M147.667 69.9999C147.223 71.0053 147.091 72.1206 147.287 73.2019C147.483 74.2832 147.998 75.281 148.767 76.0666L148.967 76.2666C149.587 76.8857 150.078 77.621 150.414 78.4303C150.749 79.2396 150.922 80.1072 150.922 80.9833C150.922 81.8594 150.749 82.7269 150.414 83.5362C150.078 84.3455 149.587 85.0808 148.967 85.6999C148.348 86.3198 147.612 86.8115 146.803 87.147C145.994 87.4825 145.126 87.6552 144.25 87.6552C143.374 87.6552 142.507 87.4825 141.697 87.147C140.888 86.8115 140.153 86.3198 139.533 85.6999L139.333 85.4999C138.548 84.7315 137.55 84.216 136.469 84.0199C135.387 83.8238 134.272 83.9562 133.267 84.3999C132.281 84.8225 131.44 85.5241 130.848 86.4184C130.256 87.3127 129.938 88.3606 129.933 89.4333V89.9999C129.933 91.768 129.231 93.4637 127.981 94.714C126.731 95.9642 125.035 96.6666 123.267 96.6666C121.499 96.6666 119.803 95.9642 118.553 94.714C117.303 93.4637 116.6 91.768 116.6 89.9999V89.6999C116.574 88.5966 116.217 87.5266 115.575 86.6289C114.933 85.7313 114.036 85.0475 113 84.6666C111.995 84.2229 110.88 84.0905 109.798 84.2866C108.717 84.4826 107.719 84.9981 106.933 85.7666L106.733 85.9666C106.114 86.5864 105.379 87.0782 104.57 87.4137C103.76 87.7491 102.893 87.9218 102.017 87.9218C101.141 87.9218 100.273 87.7491 99.4639 87.4137C98.6546 87.0782 97.9193 86.5864 97.3002 85.9666C96.6803 85.3474 96.1886 84.6122 95.8531 83.8029C95.5176 82.9935 95.3449 82.126 95.3449 81.2499C95.3449 80.3738 95.5176 79.5063 95.8531 78.697C96.1886 77.8877 96.6803 77.1524 97.3002 76.5333L97.5002 76.3333C98.2686 75.5477 98.7841 74.5499 98.9802 73.4685C99.1762 72.3872 99.0439 71.272 98.6002 70.2666C98.1776 69.2807 97.476 68.4399 96.5817 67.8476C95.6874 67.2554 94.6395 66.9375 93.5668 66.9333H93.0002C91.2321 66.9333 89.5364 66.2309 88.2861 64.9806C87.0359 63.7304 86.3335 62.0347 86.3335 60.2666C86.3335 58.4985 87.0359 56.8028 88.2861 55.5525C89.5364 54.3023 91.2321 53.5999 93.0002 53.5999H93.3002C94.4035 53.5741 95.4735 53.217 96.3712 52.575C97.2688 51.9329 97.9525 51.0357 98.3335 49.9999C98.7772 48.9945 98.9096 47.8793 98.7135 46.798C98.5174 45.7166 98.002 44.7188 97.2335 43.9333L97.0335 43.7333C96.4137 43.1141 95.9219 42.3788 95.5864 41.5695C95.2509 40.7602 95.0783 39.8927 95.0783 39.0166C95.0783 38.1405 95.2509 37.273 95.5864 36.4637C95.9219 35.6543 96.4137 34.9191 97.0335 34.2999C97.6527 33.6801 98.3879 33.1883 99.1972 32.8529C100.007 32.5174 100.874 32.3447 101.75 32.3447C102.626 32.3447 103.494 32.5174 104.303 32.8529C105.112 33.1883 105.848 33.6801 106.467 34.2999L106.667 34.4999C107.452 35.2684 108.45 35.7839 109.532 35.9799C110.613 36.176 111.728 36.0436 112.733 35.5999H113C113.986 35.1774 114.827 34.4758 115.419 33.5815C116.011 32.6872 116.329 31.6392 116.333 30.5666V29.9999C116.333 28.2318 117.036 26.5361 118.286 25.2859C119.536 24.0356 121.232 23.3333 123 23.3333C124.768 23.3333 126.464 24.0356 127.714 25.2859C128.964 26.5361 129.667 28.2318 129.667 29.9999V30.2999C129.671 31.3725 129.989 32.4205 130.581 33.3148C131.173 34.2091 132.014 34.9107 133 35.3333C134.006 35.777 135.121 35.9093 136.202 35.7133C137.283 35.5172 138.281 35.0017 139.067 34.2333L139.267 34.0333C139.886 33.4134 140.621 32.9217 141.431 32.5862C142.24 32.2507 143.107 32.078 143.983 32.078C144.86 32.078 145.727 32.2507 146.536 32.5862C147.346 32.9217 148.081 33.4134 148.7 34.0333C149.32 34.6524 149.812 35.3877 150.147 36.197C150.483 37.0063 150.655 37.8738 150.655 38.7499C150.655 39.626 150.483 40.4935 150.147 41.3029C149.812 42.1122 149.32 42.8474 148.7 43.4666L148.5 43.6666C147.732 44.4522 147.216 45.45 147.02 46.5313C146.824 47.6126 146.956 48.7279 147.4 49.7333V49.9999C147.823 50.9858 148.524 51.8266 149.419 52.4189C150.313 53.0111 151.361 53.329 152.433 53.3333H153C154.768 53.3333 156.464 54.0356 157.714 55.2859C158.964 56.5361 159.667 58.2318 159.667 59.9999C159.667 61.768 158.964 63.4637 157.714 64.714C156.464 65.9642 154.768 66.6666 153 66.6666H152.7C151.628 66.6709 150.58 66.9887 149.685 67.5809C148.791 68.1732 148.089 69.014 147.667 69.9999Z" stroke="#975102" stroke-width="2.5" stroke-linecap="round" stroke-linejoin="round"/>
</svg>
